<?xml version="1.0" encoding="UTF-8" standalone="no"?><!DOCTYPE svg PUBLIC "-//W3C//DTD SVG 1.1//EN" "http://www.w3.org/Graphics/SVG/1.1/DTD/svg11.dtd"><svg width="100%" height="100%" viewBox="0 0 4267 4267" version="1.1" xmlns="http://www.w3.org/2000/svg" xmlns:xlink="http://www.w3.org/1999/xlink" xml:space="preserve" xmlns:serif="http://www.serif.com/" style="fill-rule:evenodd;clip-rule:evenodd;stroke-linecap:round;stroke-linejoin:round;stroke-miterlimit:3;"><g id="Associer"><circle cx="2658.34" cy="1256.31" r="445.215" style="fill:#487b00;"/><path d="M3589.79,631.462c-0,-149.311 -121.222,-270.533 -270.533,-270.533l-2386.35,0c-149.311,0 -270.533,121.222 -270.533,270.533l0,3021.55c0,149.311 121.222,270.532 270.533,270.532l2386.35,0c149.311,0 270.533,-121.221 270.533,-270.532l-0,-3021.55Z" style="fill:none;stroke:#487b00;stroke-width:250px;"/><path d="M1766.78,1929.26l1256.98,1870.74l-1981.85,-0l724.867,-1870.74Z" style="fill:none;stroke:#487b00;stroke-width:208.33px;"/><path d="M2658.34,3160.63l380.031,-561.846l551.419,810.855l-63.385,390.36l-868.065,0l-0,-639.369Z" style="fill:#487b00;stroke:#487b00;stroke-width:208.33px;stroke-miterlimit:1.5;"/><path d="M840.054,2988.5l899.37,-1028.27l1284.34,1839.77l-2183.71,-0l-0,-811.501Z" style="fill:#487b00;"/><path d="M761.647,2919.92c-16.607,18.987 -25.76,43.354 -25.76,68.579l0,811.501c0,57.53 46.637,104.167 104.167,104.167l2183.71,-0c38.817,-0 74.415,-21.584 92.363,-56.003c17.948,-34.418 15.27,-75.962 -6.95,-107.791l-1284.34,-1839.77c-18.338,-26.267 -47.742,-42.637 -79.729,-44.385c-31.988,-1.748 -63.001,11.32 -84.091,35.433l-899.37,1028.27Zm182.573,107.706l785.982,-898.628c-0,-0 1093.8,1566.84 1093.8,1566.84c0,0 -1879.79,0 -1879.79,0c0,0 0,-668.207 0,-668.207l0,-0Z" style="fill:#487b00;"/></g></svg>